<svg id="visual" viewBox="0 0 960 300" width="960" height="300" xmlns="http://www.w3.org/2000/svg" xmlns:xlink="http://www.w3.org/1999/xlink" version="1.1"><rect x="0" y="0" width="960" height="300" fill="#ffffff"></rect><path d="M0 169L16 170.5C32 172 64 175 96 174C128 173 160 168 192 175.8C224 183.7 256 204.3 288 203.2C320 202 352 179 384 174.5C416 170 448 184 480 193.5C512 203 544 208 576 214C608 220 640 227 672 229.7C704 232.3 736 230.7 768 216.8C800 203 832 177 864 173.5C896 170 928 189 944 198.5L960 208L960 301L944 301C928 301 896 301 864 301C832 301 800 301 768 301C736 301 704 301 672 301C640 301 608 301 576 301C544 301 512 301 480 301C448 301 416 301 384 301C352 301 320 301 288 301C256 301 224 301 192 301C160 301 128 301 96 301C64 301 32 301 16 301L0 301Z" fill="#ffffff"></path><path d="M0 233L16 224.7C32 216.3 64 199.7 96 191.8C128 184 160 185 192 191.8C224 198.7 256 211.3 288 211.3C320 211.3 352 198.7 384 199.8C416 201 448 216 480 216.7C512 217.3 544 203.7 576 200C608 196.3 640 202.7 672 206.3C704 210 736 211 768 213.3C800 215.7 832 219.3 864 219.2C896 219 928 215 944 213L960 211L960 301L944 301C928 301 896 301 864 301C832 301 800 301 768 301C736 301 704 301 672 301C640 301 608 301 576 301C544 301 512 301 480 301C448 301 416 301 384 301C352 301 320 301 288 301C256 301 224 301 192 301C160 301 128 301 96 301C64 301 32 301 16 301L0 301Z" fill="#d7d6ff"></path><path d="M0 236L16 237.7C32 239.3 64 242.7 96 241C128 239.3 160 232.7 192 235.8C224 239 256 252 288 252.8C320 253.7 352 242.3 384 232.3C416 222.3 448 213.7 480 209.3C512 205 544 205 576 209.8C608 214.7 640 224.3 672 223.8C704 223.3 736 212.7 768 208.8C800 205 832 208 864 217.7C896 227.3 928 243.7 944 251.8L960 260L960 301L944 301C928 301 896 301 864 301C832 301 800 301 768 301C736 301 704 301 672 301C640 301 608 301 576 301C544 301 512 301 480 301C448 301 416 301 384 301C352 301 320 301 288 301C256 301 224 301 192 301C160 301 128 301 96 301C64 301 32 301 16 301L0 301Z" fill="#acafff"></path><path d="M0 240L16 243.2C32 246.3 64 252.7 96 254.2C128 255.7 160 252.3 192 248.7C224 245 256 241 288 243.7C320 246.3 352 255.7 384 261.5C416 267.3 448 269.7 480 269.5C512 269.3 544 266.7 576 263.3C608 260 640 256 672 250.8C704 245.7 736 239.3 768 237.7C800 236 832 239 864 245C896 251 928 260 944 264.5L960 269L960 301L944 301C928 301 896 301 864 301C832 301 800 301 768 301C736 301 704 301 672 301C640 301 608 301 576 301C544 301 512 301 480 301C448 301 416 301 384 301C352 301 320 301 288 301C256 301 224 301 192 301C160 301 128 301 96 301C64 301 32 301 16 301L0 301Z" fill="#7789ff"></path><path d="M0 270L16 268.7C32 267.3 64 264.7 96 263.7C128 262.7 160 263.3 192 269.2C224 275 256 286 288 291C320 296 352 295 384 290.5C416 286 448 278 480 273.7C512 269.3 544 268.7 576 273C608 277.3 640 286.7 672 288C704 289.3 736 282.7 768 275.3C800 268 832 260 864 262.7C896 265.3 928 278.7 944 285.3L960 292L960 301L944 301C928 301 896 301 864 301C832 301 800 301 768 301C736 301 704 301 672 301C640 301 608 301 576 301C544 301 512 301 480 301C448 301 416 301 384 301C352 301 320 301 288 301C256 301 224 301 192 301C160 301 128 301 96 301C64 301 32 301 16 301L0 301Z" fill="#0066ff"></path></svg>