<svg id="visual" viewBox="0 0 960 300" width="960" height="300" xmlns="http://www.w3.org/2000/svg" xmlns:xlink="http://www.w3.org/1999/xlink" version="1.1"><rect x="0" y="0" width="960" height="300" fill="#ffffff"></rect><path d="M0 134L16 126C32 118 64 102 96 96.8C128 91.7 160 97.3 192 105.2C224 113 256 123 288 120.7C320 118.3 352 103.7 384 101.5C416 99.3 448 109.7 480 117C512 124.3 544 128.7 576 131.8C608 135 640 137 672 136.5C704 136 736 133 768 132.8C800 132.7 832 135.3 864 129.2C896 123 928 108 944 100.5L960 93L960 0L944 0C928 0 896 0 864 0C832 0 800 0 768 0C736 0 704 0 672 0C640 0 608 0 576 0C544 0 512 0 480 0C448 0 416 0 384 0C352 0 320 0 288 0C256 0 224 0 192 0C160 0 128 0 96 0C64 0 32 0 16 0L0 0Z" fill="#ffffff"></path><path d="M0 114L16 111.7C32 109.3 64 104.7 96 106C128 107.3 160 114.7 192 107.5C224 100.3 256 78.7 288 75.7C320 72.7 352 88.3 384 87.5C416 86.7 448 69.3 480 72C512 74.7 544 97.3 576 105.3C608 113.3 640 106.7 672 94.8C704 83 736 66 768 61.7C800 57.3 832 65.7 864 73C896 80.3 928 86.7 944 89.8L960 93L960 0L944 0C928 0 896 0 864 0C832 0 800 0 768 0C736 0 704 0 672 0C640 0 608 0 576 0C544 0 512 0 480 0C448 0 416 0 384 0C352 0 320 0 288 0C256 0 224 0 192 0C160 0 128 0 96 0C64 0 32 0 16 0L0 0Z" fill="#d7d6ff"></path><path d="M0 76L16 73C32 70 64 64 96 58.8C128 53.7 160 49.3 192 47.7C224 46 256 47 288 55.3C320 63.7 352 79.3 384 85.5C416 91.7 448 88.3 480 83.5C512 78.7 544 72.3 576 63.8C608 55.3 640 44.7 672 47.8C704 51 736 68 768 73.8C800 79.7 832 74.3 864 73.5C896 72.7 928 76.3 944 78.2L960 80L960 0L944 0C928 0 896 0 864 0C832 0 800 0 768 0C736 0 704 0 672 0C640 0 608 0 576 0C544 0 512 0 480 0C448 0 416 0 384 0C352 0 320 0 288 0C256 0 224 0 192 0C160 0 128 0 96 0C64 0 32 0 16 0L0 0Z" fill="#acafff"></path><path d="M0 55L16 54.5C32 54 64 53 96 46.3C128 39.7 160 27.3 192 30.2C224 33 256 51 288 54.3C320 57.7 352 46.3 384 42.8C416 39.3 448 43.7 480 49.3C512 55 544 62 576 62.8C608 63.7 640 58.3 672 52.8C704 47.3 736 41.7 768 41.2C800 40.7 832 45.3 864 42.8C896 40.3 928 30.7 944 25.8L960 21L960 0L944 0C928 0 896 0 864 0C832 0 800 0 768 0C736 0 704 0 672 0C640 0 608 0 576 0C544 0 512 0 480 0C448 0 416 0 384 0C352 0 320 0 288 0C256 0 224 0 192 0C160 0 128 0 96 0C64 0 32 0 16 0L0 0Z" fill="#7789ff"></path><path d="M0 37L16 37.5C32 38 64 39 96 37.2C128 35.3 160 30.7 192 30.2C224 29.7 256 33.3 288 36.3C320 39.3 352 41.7 384 37.5C416 33.3 448 22.7 480 19.8C512 17 544 22 576 20.2C608 18.3 640 9.7 672 11.8C704 14 736 27 768 32.2C800 37.3 832 34.7 864 35.7C896 36.7 928 41.3 944 43.7L960 46L960 0L944 0C928 0 896 0 864 0C832 0 800 0 768 0C736 0 704 0 672 0C640 0 608 0 576 0C544 0 512 0 480 0C448 0 416 0 384 0C352 0 320 0 288 0C256 0 224 0 192 0C160 0 128 0 96 0C64 0 32 0 16 0L0 0Z" fill="#0066ff"></path></svg>